<?xml version="1.0" encoding="utf-8"?>
<!-- Generator: Adobe Illustrator 26.0.1, SVG Export Plug-In . SVG Version: 6.00 Build 0)  -->
<svg version="1.1" id="Layer_1" xmlns="http://www.w3.org/2000/svg" xmlns:xlink="http://www.w3.org/1999/xlink" x="0px" y="0px"
	 viewBox="0 0 57.1 42.5" style="enable-background:new 0 0 57.1 42.5;" xml:space="preserve">
<style type="text/css">
	.st0{fill:#2121F4;}
	.st1{font-family:'Candara';}
	.st2{font-size:10.066px;}
	.st3{font-size:9.1164px;}
	.st4{fill:none;stroke:#F7931E;stroke-width:0.75;stroke-miterlimit:10;}
	.st5{fill:none;stroke:#000000;stroke-width:0.75;stroke-miterlimit:10;}
	.st6{fill:none;stroke:#000000;stroke-width:0.15;stroke-miterlimit:10;}
	.st7{fill:none;stroke:#000000;stroke-width:0.1;stroke-miterlimit:10;}
	.st8{fill:none;stroke:#000000;stroke-width:0.25;stroke-miterlimit:10;}
</style>
<g>
	<text transform="matrix(1.2723 -2.023474e-02 -1.312192e-02 0.9999 12.1804 19.964)" class="st0 st1 st2">Tutors</text>
	<text transform="matrix(1.4264 -2.244141e-02 -1.512100e-02 0.9999 15.0917 28.9447)" class="st0 st1 st3">Point</text>
</g>
<g>
	<path class="st4" d="M28.2,33.9"/>
	<polyline class="st5" points="28.9,4.1 53.3,3 54.9,37 29.3,38.1 	"/>
	<path class="st5" d="M4.6,8.3"/>
	<polyline class="st5" points="3.9,5.7 7.9,9.3 9.1,35.7 5.4,39.2 	"/>
	<polyline class="st5" points="7.9,9.3 29.1,8.4 29.2,10.6 28.9,4.1 3.9,5.4 5.4,39.2 29.3,38.1 29.1,34.8 9.1,35.7 	"/>
	<polyline class="st5" points="53.1,3.2 49,7 50.4,33.5 54.9,37 	"/>
	<line class="st5" x1="29.1" y1="34.8" x2="50.4" y2="33.5"/>
	<line class="st5" x1="29" y1="8.5" x2="49" y2="7.3"/>
	<line class="st6" x1="8.4" y1="36" x2="7" y2="8.9"/>
	<line class="st6" x1="6.5" y1="8.2" x2="7.8" y2="36.7"/>
	<line class="st6" x1="6.1" y1="7.8" x2="7.4" y2="37.4"/>
	<polyline class="st6" points="5.5,7.7 7,37.7 29.1,36.9 52.6,35.4 	"/>
	<line class="st6" x1="5.1" y1="7.1" x2="6.4" y2="38.4"/>
	<polyline class="st6" points="5.9,38.5 4.5,6.3 28.7,4.9 	"/>
	<line class="st6" x1="5.3" y1="7.4" x2="28.8" y2="6"/>
	<polyline class="st6" points="6.2,8.4 29,7 50.5,5.5 	"/>
	<polyline class="st6" points="5.2,6.7 29.1,5.5 52,4.2 	"/>
	<polyline class="st6" points="6.4,7.9 28.9,6.6 51,5 52.6,35.2 	"/>
	<polyline class="st7" points="29,5 52.2,3.7 53.9,36.3 	"/>
	<polyline class="st6" points="29.2,5.9 51.3,4.6 53,35.5 	"/>
	<line class="st6" x1="50.1" y1="5.6" x2="51.8" y2="34.5"/>
	<line class="st6" x1="50.6" y1="5.3" x2="52.2" y2="34.7"/>
	<line class="st6" x1="51.7" y1="4.4" x2="53.5" y2="35.8"/>
	<line class="st7" x1="52.7" y1="3.9" x2="54.2" y2="36.1"/>
	<polyline class="st6" points="8.9,36.2 29.1,35.5 51.2,34.1 49.8,6.1 29,7.6 7.7,8.7 	"/>
	<polyline class="st7" points="8.4,36.5 29.1,35.8 51.4,34.4 	"/>
	<polyline class="st7" points="8.1,36.9 29.2,36.2 51.6,34.8 	"/>
	<polyline class="st7" points="7.7,37.4 29.1,36.5 51.9,35.1 	"/>
	<line class="st6" x1="6.6" y1="38.2" x2="28.9" y2="37.5"/>
	<line class="st6" x1="29.4" y1="37.5" x2="53.6" y2="36"/>
	<path class="st8" d="M29.3,38.4c0.3,0.4,0.6,0.8,0.8,1.2c0.1,0.2,0.3,0.4,0.3,0.6c0,0.2,0,0.3,0,0.5c0,0.5,0.4,1,1,1.2
		c0.5,0.2,1.2,0.2,1.8,0.2c0.1,0,0.3,0,0.3-0.1"/>
</g>
</svg>
